<?xml version="1.0" encoding="UTF-8"?><svg xmlns="http://www.w3.org/2000/svg" xmlns:xlink="http://www.w3.org/1999/xlink" fill-opacity="1" color-rendering="auto" color-interpolation="auto" text-rendering="auto" stroke="black" stroke-linecap="square" width="494" stroke-miterlimit="10" shape-rendering="auto" stroke-opacity="1" fill="black" stroke-dasharray="none" font-weight="normal" stroke-width="1" height="355" font-family="'Dialog'" font-style="normal" stroke-linejoin="miter" font-size="12" stroke-dashoffset="0" image-rendering="auto">
  <!--Generated by ySVG 2.5-->
  <defs id="genericDefs"/>
  <g>
    <defs id="defs1">
      <clipPath clipPathUnits="userSpaceOnUse" id="clipPath1">
        <path d="M0 0 L494 0 L494 355 L0 355 L0 0 Z"/>
      </clipPath>
      <clipPath clipPathUnits="userSpaceOnUse" id="clipPath2">
        <path d="M264 116 L758 116 L758 471 L264 471 L264 116 Z"/>
      </clipPath>
      <clipPath clipPathUnits="userSpaceOnUse" id="clipPath3">
        <path d="M450 131 L450 264 L572 264 L572 131 Z"/>
      </clipPath>
      <clipPath clipPathUnits="userSpaceOnUse" id="clipPath4">
        <path d="M279 336 L279 456 L379 456 L379 336 Z"/>
      </clipPath>
      <clipPath clipPathUnits="userSpaceOnUse" id="clipPath5">
        <path d="M461 336 L461 456 L561 456 L561 336 Z"/>
      </clipPath>
      <clipPath clipPathUnits="userSpaceOnUse" id="clipPath6">
        <path d="M643 336 L643 456 L743 456 L743 336 Z"/>
      </clipPath>
    </defs>
    <g fill="white" text-rendering="geometricPrecision" shape-rendering="geometricPrecision" transform="translate(-264,-116)" stroke="white">
      <rect x="264" width="494" height="355" y="116" clip-path="url(#clipPath2)" stroke="none"/>
    </g>
    <g fill="rgb(255,204,0)" text-rendering="geometricPrecision" shape-rendering="geometricPrecision" transform="matrix(1,0,0,1,-264,-116)" stroke="rgb(255,204,0)">
      <rect x="451" width="120" height="131" y="132" clip-path="url(#clipPath2)" stroke="none"/>
      <rect x="450" y="131" clip-path="url(#clipPath2)" fill="yellow" width="1" height="133" stroke="none"/>
      <rect x="451" y="131" clip-path="url(#clipPath2)" fill="yellow" width="120" height="1" stroke="none"/>
      <rect x="451" y="263" clip-path="url(#clipPath2)" fill="rgb(178,142,0)" width="121" height="1" stroke="none"/>
      <rect x="571" y="131" clip-path="url(#clipPath2)" fill="rgb(178,142,0)" width="1" height="132" stroke="none"/>
    </g>
    <g font-size="13" stroke-linecap="butt" transform="matrix(1,0,0,1,-264,-116)" text-rendering="geometricPrecision" font-family="sans-serif" shape-rendering="geometricPrecision" font-weight="bold" stroke-miterlimit="1.45">
      <text x="491.3826" xml:space="preserve" y="148.0669" clip-path="url(#clipPath3)" stroke="none">Entry</text>
    </g>
    <g text-rendering="geometricPrecision" shape-rendering="geometricPrecision" transform="matrix(1,0,0,1,-264,-116)">
      <line y2="156" fill="none" x1="451" clip-path="url(#clipPath3)" x2="571" y1="156"/>
      <text stroke-linecap="butt" x="455" y="172.2715" clip-path="url(#clipPath3)" font-family="sans-serif" stroke="none" stroke-miterlimit="1.45" xml:space="preserve">id</text>
      <text stroke-linecap="butt" x="455" y="186.2402" clip-path="url(#clipPath3)" font-family="sans-serif" stroke="none" stroke-miterlimit="1.45" xml:space="preserve">name</text>
      <text stroke-linecap="butt" x="455" y="200.209" clip-path="url(#clipPath3)" font-family="sans-serif" stroke="none" stroke-miterlimit="1.45" xml:space="preserve">description</text>
      <text stroke-linecap="butt" x="455" y="214.1777" clip-path="url(#clipPath3)" font-family="sans-serif" stroke="none" stroke-miterlimit="1.45" xml:space="preserve">created_at</text>
      <text stroke-linecap="butt" x="455" y="228.1465" clip-path="url(#clipPath3)" font-family="sans-serif" stroke="none" stroke-miterlimit="1.45" xml:space="preserve">author</text>
      <text stroke-linecap="butt" x="455" y="242.1152" clip-path="url(#clipPath3)" font-family="sans-serif" stroke="none" stroke-miterlimit="1.45" xml:space="preserve">version</text>
      <line y2="249" fill="none" x1="451" clip-path="url(#clipPath3)" x2="571" y1="249"/>
      <rect x="280" y="337" clip-path="url(#clipPath2)" fill="rgb(255,204,0)" width="98" height="118" stroke="none"/>
      <rect x="279" y="336" clip-path="url(#clipPath2)" fill="yellow" width="1" height="120" stroke="none"/>
      <rect x="280" y="336" clip-path="url(#clipPath2)" fill="yellow" width="98" height="1" stroke="none"/>
      <rect x="280" y="455" clip-path="url(#clipPath2)" fill="rgb(178,142,0)" width="99" height="1" stroke="none"/>
      <rect x="378" y="336" clip-path="url(#clipPath2)" fill="rgb(178,142,0)" width="1" height="119" stroke="none"/>
    </g>
    <g font-size="13" stroke-linecap="butt" transform="matrix(1,0,0,1,-264,-116)" text-rendering="geometricPrecision" font-family="sans-serif" shape-rendering="geometricPrecision" font-weight="bold" stroke-miterlimit="1.45">
      <text x="298.5027" xml:space="preserve" y="353.0669" clip-path="url(#clipPath4)" stroke="none">Problem</text>
    </g>
    <g fill="rgb(255,204,0)" text-rendering="geometricPrecision" shape-rendering="geometricPrecision" transform="matrix(1,0,0,1,-264,-116)" stroke="rgb(255,204,0)">
      <rect x="462" width="98" height="118" y="337" clip-path="url(#clipPath2)" stroke="none"/>
      <rect x="461" y="336" clip-path="url(#clipPath2)" fill="yellow" width="1" height="120" stroke="none"/>
      <rect x="462" y="336" clip-path="url(#clipPath2)" fill="yellow" width="98" height="1" stroke="none"/>
      <rect x="462" y="455" clip-path="url(#clipPath2)" fill="rgb(178,142,0)" width="99" height="1" stroke="none"/>
      <rect x="560" y="336" clip-path="url(#clipPath2)" fill="rgb(178,142,0)" width="1" height="119" stroke="none"/>
    </g>
    <g font-size="13" stroke-linecap="butt" transform="matrix(1,0,0,1,-264,-116)" text-rendering="geometricPrecision" font-family="sans-serif" shape-rendering="geometricPrecision" font-weight="bold" stroke-miterlimit="1.45">
      <text x="480.5693" xml:space="preserve" y="353.0669" clip-path="url(#clipPath5)" stroke="none">Solution</text>
    </g>
    <g text-rendering="geometricPrecision" shape-rendering="geometricPrecision" transform="matrix(1,0,0,1,-264,-116)">
      <line y2="361" fill="none" x1="462" clip-path="url(#clipPath5)" x2="560" y1="361"/>
      <text stroke-linecap="butt" x="466" y="377.2715" clip-path="url(#clipPath5)" font-family="sans-serif" stroke="none" stroke-miterlimit="1.45" xml:space="preserve">problem</text>
      <text stroke-linecap="butt" x="466" y="391.2402" clip-path="url(#clipPath5)" font-family="sans-serif" stroke="none" stroke-miterlimit="1.45" xml:space="preserve">toolbox</text>
      <text stroke-linecap="butt" x="466" y="405.209" clip-path="url(#clipPath5)" font-family="sans-serif" stroke="none" stroke-miterlimit="1.45" xml:space="preserve">template</text>
      <text stroke-linecap="butt" x="466" y="419.1777" clip-path="url(#clipPath5)" font-family="sans-serif" stroke="none" stroke-miterlimit="1.45" xml:space="preserve">variables</text>
      <text stroke-linecap="butt" x="466" y="433.1465" clip-path="url(#clipPath5)" font-family="sans-serif" stroke="none" stroke-miterlimit="1.45" xml:space="preserve">dependencies</text>
      <line y2="440" fill="none" x1="462" clip-path="url(#clipPath5)" x2="560" y1="440"/>
      <rect x="644" y="337" clip-path="url(#clipPath2)" fill="rgb(255,204,0)" width="98" height="118" stroke="none"/>
      <rect x="643" y="336" clip-path="url(#clipPath2)" fill="yellow" width="1" height="120" stroke="none"/>
      <rect x="644" y="336" clip-path="url(#clipPath2)" fill="yellow" width="98" height="1" stroke="none"/>
      <rect x="644" y="455" clip-path="url(#clipPath2)" fill="rgb(178,142,0)" width="99" height="1" stroke="none"/>
      <rect x="742" y="336" clip-path="url(#clipPath2)" fill="rgb(178,142,0)" width="1" height="119" stroke="none"/>
    </g>
    <g font-size="13" stroke-linecap="butt" transform="matrix(1,0,0,1,-264,-116)" text-rendering="geometricPrecision" font-family="sans-serif" shape-rendering="geometricPrecision" font-weight="bold" stroke-miterlimit="1.45">
      <text x="664.0959" xml:space="preserve" y="353.0669" clip-path="url(#clipPath6)" stroke="none">Toolbox</text>
    </g>
    <g text-rendering="geometricPrecision" shape-rendering="geometricPrecision" transform="matrix(1,0,0,1,-264,-116)">
      <line y2="361" fill="none" x1="644" clip-path="url(#clipPath6)" x2="742" y1="361"/>
      <text stroke-linecap="butt" x="648" y="377.2715" clip-path="url(#clipPath6)" font-family="sans-serif" stroke="none" stroke-miterlimit="1.45" xml:space="preserve">source</text>
      <text stroke-linecap="butt" x="648" y="391.2402" clip-path="url(#clipPath6)" font-family="sans-serif" stroke="none" stroke-miterlimit="1.45" xml:space="preserve">dependencies</text>
      <text stroke-linecap="butt" x="648" y="405.209" clip-path="url(#clipPath6)" font-family="sans-serif" stroke="none" stroke-miterlimit="1.45" xml:space="preserve">homepage</text>
      <text stroke-linecap="butt" x="648" y="419.1777" clip-path="url(#clipPath6)" font-family="sans-serif" stroke="none" stroke-miterlimit="1.45" xml:space="preserve">license</text>
      <text stroke-linecap="butt" x="648" y="433.1465" clip-path="url(#clipPath6)" font-family="sans-serif" stroke="none" stroke-miterlimit="1.45" xml:space="preserve">images</text>
      <line y2="440" fill="none" x1="644" clip-path="url(#clipPath6)" x2="742" y1="440"/>
      <path fill="none" stroke-miterlimit="1.45" d="M379.01 341.4561 L439.8626 275.0867" clip-path="url(#clipPath2)" stroke-linecap="butt"/>
    </g>
    <g stroke-linecap="butt" transform="matrix(1,0,0,1,-264,-116)" fill="white" text-rendering="geometricPrecision" shape-rendering="geometricPrecision" stroke="white" stroke-miterlimit="1.45">
      <path d="M449.9997 264.0305 L434.7643 271.7689 L443.6093 279.8786 Z" stroke="none" clip-path="url(#clipPath2)"/>
      <path fill="none" d="M449.9997 264.0305 L434.7643 271.7689 L443.6093 279.8786 Z" clip-path="url(#clipPath2)" stroke="black"/>
      <path fill="none" d="M511 335.9557 L511 278.9898" clip-path="url(#clipPath2)" stroke="black"/>
      <path d="M511 263.9898 L505 279.9898 L517 279.9898 Z" clip-path="url(#clipPath2)" stroke="none"/>
      <path fill="none" d="M511 263.9898 L505 279.9898 L517 279.9898 Z" clip-path="url(#clipPath2)" stroke="black"/>
      <path fill="none" d="M461.0122 396 L378.988 396" clip-path="url(#clipPath2)" stroke="black"/>
      <text x="380.2568" y="370.1543" clip-path="url(#clipPath2)" fill="black" font-family="sans-serif" stroke="none" xml:space="preserve">0..*             1</text>
      <path fill="none" d="M560.9878 396 L643.012 396" clip-path="url(#clipPath2)" stroke="black"/>
      <text x="563.2568" y="370.1543" clip-path="url(#clipPath2)" fill="black" font-family="sans-serif" stroke="none" xml:space="preserve">1             0..*</text>
      <path fill="none" d="M642.99 341.4561 L582.1374 275.0867" clip-path="url(#clipPath2)" stroke="black"/>
      <path d="M572.0002 264.0305 L578.3907 279.8786 L587.2357 271.7689 Z" clip-path="url(#clipPath2)" stroke="none"/>
      <path fill="none" d="M572.0002 264.0305 L578.3907 279.8786 L587.2357 271.7689 Z" clip-path="url(#clipPath2)" stroke="black"/>
    </g>
  </g>
</svg>
