<?xml version="1.0" encoding="UTF-8"?><svg xmlns="http://www.w3.org/2000/svg" xmlns:xlink="http://www.w3.org/1999/xlink" fill-opacity="1" color-rendering="auto" color-interpolation="auto" text-rendering="auto" stroke="black" stroke-linecap="square" width="507" stroke-miterlimit="10" shape-rendering="auto" stroke-opacity="1" fill="black" stroke-dasharray="none" font-weight="normal" stroke-width="1" height="391" font-family="'Dialog'" font-style="normal" stroke-linejoin="miter" font-size="12px" stroke-dashoffset="0" image-rendering="auto">
  <!--Generated by ySVG 2.5-->
  <defs id="genericDefs"/>
  <g>
    <defs id="defs1">
      <clipPath clipPathUnits="userSpaceOnUse" id="clipPath1">
        <path d="M0 0 L507 0 L507 391 L0 391 L0 0 Z"/>
      </clipPath>
      <clipPath clipPathUnits="userSpaceOnUse" id="clipPath2">
        <path d="M264 94 L771 94 L771 485 L264 485 L264 94 Z"/>
      </clipPath>
      <clipPath clipPathUnits="userSpaceOnUse" id="clipPath3">
        <path d="M450 109 L450 263 L572 263 L572 109 Z"/>
      </clipPath>
      <clipPath clipPathUnits="userSpaceOnUse" id="clipPath4">
        <path d="M279 336 L279 456 L379 456 L379 336 Z"/>
      </clipPath>
      <clipPath clipPathUnits="userSpaceOnUse" id="clipPath5">
        <path d="M461 336 L461 456 L561 456 L561 336 Z"/>
      </clipPath>
      <clipPath clipPathUnits="userSpaceOnUse" id="clipPath6">
        <path d="M643 322 L643 469 L755 469 L755 322 Z"/>
      </clipPath>
    </defs>
    <g fill="white" text-rendering="geometricPrecision" shape-rendering="geometricPrecision" transform="translate(-264,-94)" stroke="white">
      <rect x="264" width="507" height="391" y="94" clip-path="url(#clipPath2)" stroke="none"/>
    </g>
    <g fill="rgb(255,204,0)" text-rendering="geometricPrecision" shape-rendering="geometricPrecision" transform="matrix(1,0,0,1,-264,-94)" stroke="rgb(255,204,0)">
      <rect x="451" width="120" height="152" y="110" clip-path="url(#clipPath2)" stroke="none"/>
      <rect x="450" y="109" clip-path="url(#clipPath2)" fill="yellow" width="1" height="154" stroke="none"/>
      <rect x="451" y="109" clip-path="url(#clipPath2)" fill="yellow" width="120" height="1" stroke="none"/>
      <rect x="451" y="262" clip-path="url(#clipPath2)" fill="rgb(178,142,0)" width="121" height="1" stroke="none"/>
      <rect x="571" y="109" clip-path="url(#clipPath2)" fill="rgb(178,142,0)" width="1" height="153" stroke="none"/>
    </g>
    <g font-size="13px" stroke-linecap="butt" transform="matrix(1,0,0,1,-264,-94)" text-rendering="geometricPrecision" font-family="sans-serif" shape-rendering="geometricPrecision" font-weight="bold" stroke-miterlimit="1.45">
      <text x="491.3826" xml:space="preserve" y="126.1239" clip-path="url(#clipPath3)" stroke="none">Entry</text>
    </g>
    <g text-rendering="geometricPrecision" shape-rendering="geometricPrecision" transform="matrix(1,0,0,1,-264,-94)">
      <line y2="134" fill="none" x1="451" clip-path="url(#clipPath3)" x2="571" y1="134"/>
      <text stroke-linecap="butt" x="455" y="150.3285" clip-path="url(#clipPath3)" font-family="sans-serif" stroke="none" stroke-miterlimit="1.45" xml:space="preserve">id</text>
      <text stroke-linecap="butt" x="455" y="164.2972" clip-path="url(#clipPath3)" font-family="sans-serif" stroke="none" stroke-miterlimit="1.45" xml:space="preserve">name</text>
      <text stroke-linecap="butt" x="455" y="178.266" clip-path="url(#clipPath3)" font-family="sans-serif" stroke="none" stroke-miterlimit="1.45" xml:space="preserve">description</text>
      <text stroke-linecap="butt" x="455" y="192.2347" clip-path="url(#clipPath3)" font-family="sans-serif" stroke="none" stroke-miterlimit="1.45" xml:space="preserve">created_at</text>
      <text stroke-linecap="butt" x="455" y="206.2035" clip-path="url(#clipPath3)" font-family="sans-serif" stroke="none" stroke-miterlimit="1.45" xml:space="preserve">author</text>
      <text stroke-linecap="butt" x="455" y="220.1722" clip-path="url(#clipPath3)" font-family="sans-serif" stroke="none" stroke-miterlimit="1.45" xml:space="preserve">version</text>
      <text stroke-linecap="butt" x="455" y="234.141" clip-path="url(#clipPath3)" font-family="sans-serif" stroke="none" stroke-miterlimit="1.45" xml:space="preserve">keywords</text>
      <line y2="241" fill="none" x1="451" clip-path="url(#clipPath3)" x2="571" y1="241"/>
      <rect x="280" y="337" clip-path="url(#clipPath2)" fill="rgb(255,204,0)" width="98" height="118" stroke="none"/>
      <rect x="279" y="336" clip-path="url(#clipPath2)" fill="yellow" width="1" height="120" stroke="none"/>
      <rect x="280" y="336" clip-path="url(#clipPath2)" fill="yellow" width="98" height="1" stroke="none"/>
      <rect x="280" y="455" clip-path="url(#clipPath2)" fill="rgb(178,142,0)" width="99" height="1" stroke="none"/>
      <rect x="378" y="336" clip-path="url(#clipPath2)" fill="rgb(178,142,0)" width="1" height="119" stroke="none"/>
    </g>
    <g font-size="13px" stroke-linecap="butt" transform="matrix(1,0,0,1,-264,-94)" text-rendering="geometricPrecision" font-family="sans-serif" shape-rendering="geometricPrecision" font-weight="bold" stroke-miterlimit="1.45">
      <text x="298.5027" xml:space="preserve" y="353.0669" clip-path="url(#clipPath4)" stroke="none">Problem</text>
    </g>
    <g fill="rgb(255,204,0)" text-rendering="geometricPrecision" shape-rendering="geometricPrecision" transform="matrix(1,0,0,1,-264,-94)" stroke="rgb(255,204,0)">
      <rect x="462" width="98" height="118" y="337" clip-path="url(#clipPath2)" stroke="none"/>
      <rect x="461" y="336" clip-path="url(#clipPath2)" fill="yellow" width="1" height="120" stroke="none"/>
      <rect x="462" y="336" clip-path="url(#clipPath2)" fill="yellow" width="98" height="1" stroke="none"/>
      <rect x="462" y="455" clip-path="url(#clipPath2)" fill="rgb(178,142,0)" width="99" height="1" stroke="none"/>
      <rect x="560" y="336" clip-path="url(#clipPath2)" fill="rgb(178,142,0)" width="1" height="119" stroke="none"/>
    </g>
    <g font-size="13px" stroke-linecap="butt" transform="matrix(1,0,0,1,-264,-94)" text-rendering="geometricPrecision" font-family="sans-serif" shape-rendering="geometricPrecision" font-weight="bold" stroke-miterlimit="1.45">
      <text x="480.5693" xml:space="preserve" y="353.0669" clip-path="url(#clipPath5)" stroke="none">Solution</text>
    </g>
    <g text-rendering="geometricPrecision" shape-rendering="geometricPrecision" transform="matrix(1,0,0,1,-264,-94)">
      <line y2="361" fill="none" x1="462" clip-path="url(#clipPath5)" x2="560" y1="361"/>
      <text stroke-linecap="butt" x="466" y="377.2715" clip-path="url(#clipPath5)" font-family="sans-serif" stroke="none" stroke-miterlimit="1.45" xml:space="preserve">problem</text>
      <text stroke-linecap="butt" x="466" y="391.2402" clip-path="url(#clipPath5)" font-family="sans-serif" stroke="none" stroke-miterlimit="1.45" xml:space="preserve">toolbox</text>
      <text stroke-linecap="butt" x="466" y="405.209" clip-path="url(#clipPath5)" font-family="sans-serif" stroke="none" stroke-miterlimit="1.45" xml:space="preserve">template</text>
      <text stroke-linecap="butt" x="466" y="419.1777" clip-path="url(#clipPath5)" font-family="sans-serif" stroke="none" stroke-miterlimit="1.45" xml:space="preserve">variables</text>
      <text stroke-linecap="butt" x="466" y="433.1465" clip-path="url(#clipPath5)" font-family="sans-serif" stroke="none" stroke-miterlimit="1.45" xml:space="preserve">dependencies</text>
      <line y2="440" fill="none" x1="462" clip-path="url(#clipPath5)" x2="560" y1="440"/>
      <rect x="644" y="323" clip-path="url(#clipPath2)" fill="rgb(255,204,0)" width="110" height="145" stroke="none"/>
      <rect x="643" y="322" clip-path="url(#clipPath2)" fill="yellow" width="1" height="147" stroke="none"/>
      <rect x="644" y="322" clip-path="url(#clipPath2)" fill="yellow" width="110" height="1" stroke="none"/>
      <rect x="644" y="468" clip-path="url(#clipPath2)" fill="rgb(178,142,0)" width="111" height="1" stroke="none"/>
      <rect x="754" y="322" clip-path="url(#clipPath2)" fill="rgb(178,142,0)" width="1" height="146" stroke="none"/>
    </g>
    <g font-size="13px" stroke-linecap="butt" transform="matrix(1,0,0,1,-264,-94)" text-rendering="geometricPrecision" font-family="sans-serif" shape-rendering="geometricPrecision" font-weight="bold" stroke-miterlimit="1.45">
      <text x="670.1146" xml:space="preserve" y="339.4699" clip-path="url(#clipPath6)" stroke="none">Toolbox</text>
    </g>
    <g text-rendering="geometricPrecision" shape-rendering="geometricPrecision" transform="matrix(1,0,0,1,-264,-94)">
      <line y2="347" fill="none" x1="644" clip-path="url(#clipPath6)" x2="754" y1="347"/>
      <text stroke-linecap="butt" x="648" y="363.6745" clip-path="url(#clipPath6)" font-family="sans-serif" stroke="none" stroke-miterlimit="1.45" xml:space="preserve">source</text>
      <text stroke-linecap="butt" x="648" y="377.6432" clip-path="url(#clipPath6)" font-family="sans-serif" stroke="none" stroke-miterlimit="1.45" xml:space="preserve">dependencies</text>
      <text stroke-linecap="butt" x="648" y="391.612" clip-path="url(#clipPath6)" font-family="sans-serif" stroke="none" stroke-miterlimit="1.45" xml:space="preserve">homepage</text>
      <text stroke-linecap="butt" x="648" y="405.5807" clip-path="url(#clipPath6)" font-family="sans-serif" stroke="none" stroke-miterlimit="1.45" xml:space="preserve">license</text>
      <text stroke-linecap="butt" x="648" y="419.5495" clip-path="url(#clipPath6)" font-family="sans-serif" stroke="none" stroke-miterlimit="1.45" xml:space="preserve">images</text>
      <text stroke-linecap="butt" x="648" y="433.5182" clip-path="url(#clipPath6)" font-family="sans-serif" stroke="none" stroke-miterlimit="1.45" xml:space="preserve">puppet_script</text>
      <text stroke-linecap="butt" x="648" y="447.487" clip-path="url(#clipPath6)" font-family="sans-serif" stroke="none" stroke-miterlimit="1.45" xml:space="preserve">commit_number</text>
      <line y2="455" fill="none" x1="644" clip-path="url(#clipPath6)" x2="754" y1="455"/>
      <path fill="none" stroke-miterlimit="1.45" d="M379.01 338.4414 L440.1617 268.0594" clip-path="url(#clipPath2)" stroke-linecap="butt"/>
    </g>
    <g stroke-linecap="butt" transform="matrix(1,0,0,1,-264,-94)" fill="white" text-rendering="geometricPrecision" shape-rendering="geometricPrecision" stroke="white" stroke-miterlimit="1.45">
      <path d="M449.9998 256.7363 L434.9766 264.879 L444.035 272.7495 Z" stroke="none" clip-path="url(#clipPath2)"/>
      <path fill="none" d="M449.9998 256.7363 L434.9766 264.879 L444.035 272.7495 Z" clip-path="url(#clipPath2)" stroke="black"/>
      <path fill="none" d="M511 335.9866 L511 278.9942" clip-path="url(#clipPath2)" stroke="black"/>
      <path d="M511 263.9942 L505 279.9942 L517 279.9942 Z" clip-path="url(#clipPath2)" stroke="none"/>
      <path fill="none" d="M511 263.9942 L505 279.9942 L517 279.9942 Z" clip-path="url(#clipPath2)" stroke="black"/>
      <path fill="none" d="M461.0122 396 L378.988 396" clip-path="url(#clipPath2)" stroke="black"/>
      <text x="380.2568" y="370.1543" clip-path="url(#clipPath2)" fill="black" font-family="sans-serif" stroke="none" xml:space="preserve">0..*             1</text>
      <path fill="none" d="M560.9883 396 L642.9775 396" clip-path="url(#clipPath2)" stroke="black"/>
      <text x="563.2568" y="370.1543" clip-path="url(#clipPath2)" fill="black" font-family="sans-serif" stroke="none" xml:space="preserve">1             0..*</text>
      <path fill="none" d="M642.9941 333.583 L582.0217 265.6537" clip-path="url(#clipPath2)" stroke="black"/>
      <path d="M572.0021 254.491 L578.2246 270.4058 L587.1548 262.3901 Z" clip-path="url(#clipPath2)" stroke="none"/>
      <path fill="none" d="M572.0021 254.491 L578.2246 270.4058 L587.1548 262.3901 Z" clip-path="url(#clipPath2)" stroke="black"/>
    </g>
  </g>
</svg>
