<?xml version="1.0" encoding="UTF-8"?><svg xmlns="http://www.w3.org/2000/svg" xmlns:xlink="http://www.w3.org/1999/xlink" fill-opacity="1" color-rendering="auto" color-interpolation="auto" text-rendering="auto" stroke="black" stroke-linecap="square" width="491" stroke-miterlimit="10" shape-rendering="auto" stroke-opacity="1" fill="black" stroke-dasharray="none" font-weight="normal" stroke-width="1" height="812" font-family="'Dialog'" font-style="normal" stroke-linejoin="miter" font-size="12" stroke-dashoffset="0" image-rendering="auto">
  <!--Generated by ySVG 2.5-->
  <defs id="genericDefs"/>
  <g>
    <g fill="white" text-rendering="geometricPrecision" shape-rendering="geometricPrecision" transform="translate(-400,70)" stroke="white">
      <rect x="400" width="491" height="812" y="-70" clip-path="url(#clipPath2)" stroke="none"/>
    </g>
    <g fill="rgb(245,245,245)" text-rendering="geometricPrecision" shape-rendering="geometricPrecision" transform="matrix(1,0,0,1,-400,70)" stroke="rgb(245,245,245)">
      <rect x="415.8125" y="106" clip-path="url(#clipPath2)" width="460" rx="4" ry="4" height="247.4609" stroke="none"/>
      <rect x="415.8125" y="106" clip-path="url(#clipPath2)" fill="rgb(235,235,235)" width="460" height="21.4609" stroke="none"/>
    </g>
    <g font-size="15" stroke-linecap="butt" transform="matrix(1,0,0,1,-400,70)" text-rendering="geometricPrecision" font-family="sans-serif" shape-rendering="geometricPrecision" stroke-miterlimit="1.45">
      <text x="679.8965" xml:space="preserve" y="121.9233" clip-path="url(#clipPath2)" stroke="none">Server (Python Flask app)</text>
      <rect x="415.8125" y="106" clip-path="url(#clipPath2)" fill="none" width="460" stroke-dasharray="6,2" rx="4" ry="4" height="247.4609"/>
    </g>
    <g fill="rgb(255,204,0)" text-rendering="geometricPrecision" shape-rendering="geometricPrecision" transform="matrix(1,0,0,1,-400,70)" stroke="rgb(255,204,0)">
      <rect x="430.8125" width="120" height="76" y="142.4609" clip-path="url(#clipPath2)" stroke="none"/>
    </g>
    <g text-rendering="geometricPrecision" stroke-miterlimit="1.45" shape-rendering="geometricPrecision" font-family="sans-serif" transform="matrix(1,0,0,1,-400,70)" stroke-linecap="butt">
      <text x="460.2764" xml:space="preserve" y="170.6465" clip-path="url(#clipPath2)" stroke="none">Catalogue</text>
      <text x="466.6748" xml:space="preserve" y="184.6152" clip-path="url(#clipPath2)" stroke="none">browser</text>
      <text x="469.4346" xml:space="preserve" y="198.584" clip-path="url(#clipPath2)" stroke="none">(HTML)</text>
      <rect fill="none" x="430.8125" width="120" height="76" y="142.4609" clip-path="url(#clipPath2)"/>
    </g>
    <g fill="rgb(255,204,0)" text-rendering="geometricPrecision" shape-rendering="geometricPrecision" transform="matrix(1,0,0,1,-400,70)" stroke="rgb(255,204,0)">
      <rect x="740.8125" width="120" height="76" y="142.4609" clip-path="url(#clipPath2)" stroke="none"/>
    </g>
    <g text-rendering="geometricPrecision" stroke-miterlimit="1.45" shape-rendering="geometricPrecision" font-family="sans-serif" transform="matrix(1,0,0,1,-400,70)" stroke-linecap="butt">
      <text x="769.9424" xml:space="preserve" y="184.6152" clip-path="url(#clipPath2)" stroke="none">API (JSON)</text>
      <rect fill="none" x="740.8125" width="120" height="76" y="142.4609" clip-path="url(#clipPath2)"/>
    </g>
    <g fill="rgb(255,204,0)" text-rendering="geometricPrecision" shape-rendering="geometricPrecision" transform="matrix(1,0,0,1,-400,70)" stroke="rgb(255,204,0)">
      <rect x="585.8125" width="120" height="76" y="142.4609" clip-path="url(#clipPath2)" stroke="none"/>
    </g>
    <g text-rendering="geometricPrecision" stroke-miterlimit="1.45" shape-rendering="geometricPrecision" font-family="sans-serif" transform="matrix(1,0,0,1,-400,70)" stroke-linecap="butt">
      <text x="615.2764" xml:space="preserve" y="170.6465" clip-path="url(#clipPath2)" stroke="none">Catalogue</text>
      <text x="618.8447" xml:space="preserve" y="184.6152" clip-path="url(#clipPath2)" stroke="none">manager</text>
      <text x="624.4346" xml:space="preserve" y="198.584" clip-path="url(#clipPath2)" stroke="none">(HTML)</text>
      <rect fill="none" x="585.8125" width="120" height="76" y="142.4609" clip-path="url(#clipPath2)"/>
    </g>
    <g fill="rgb(0,204,255)" text-rendering="geometricPrecision" shape-rendering="geometricPrecision" transform="matrix(1,0,0,1,-400,70)" stroke="rgb(0,204,255)">
      <rect x="485.3125" width="143" height="76" y="248.4609" clip-path="url(#clipPath2)" stroke="none"/>
    </g>
    <g text-rendering="geometricPrecision" stroke-miterlimit="1.45" shape-rendering="geometricPrecision" font-family="sans-serif" transform="matrix(1,0,0,1,-400,70)" stroke-linecap="butt">
      <text x="501.0371" xml:space="preserve" y="283.6309" clip-path="url(#clipPath2)" stroke="none">User management</text>
      <text x="539.7295" xml:space="preserve" y="297.5996" clip-path="url(#clipPath2)" stroke="none">(TBD)</text>
      <rect fill="none" x="485.3125" width="143" height="76" y="248.4609" clip-path="url(#clipPath2)"/>
    </g>
    <g fill="rgb(0,204,255)" text-rendering="geometricPrecision" shape-rendering="geometricPrecision" transform="matrix(1,0,0,1,-400,70)" stroke="rgb(0,204,255)">
      <rect x="663.3125" width="143" height="76" y="248.4609" clip-path="url(#clipPath2)" stroke="none"/>
    </g>
    <g text-rendering="geometricPrecision" stroke-miterlimit="1.45" shape-rendering="geometricPrecision" font-family="sans-serif" transform="matrix(1,0,0,1,-400,70)" stroke-linecap="butt">
      <text x="670.1836" xml:space="preserve" y="283.6309" clip-path="url(#clipPath2)" stroke="none">Version management</text>
      <text x="717.7295" xml:space="preserve" y="297.5996" clip-path="url(#clipPath2)" stroke="none">(TBD)</text>
      <rect fill="none" x="663.3125" width="143" height="76" y="248.4609" clip-path="url(#clipPath2)"/>
    </g>
    <g fill="rgb(245,245,245)" text-rendering="geometricPrecision" shape-rendering="geometricPrecision" transform="matrix(1,0,0,1,-400,70)" stroke="rgb(245,245,245)">
      <rect x="472.6875" y="439.7326" clip-path="url(#clipPath2)" width="344.625" rx="4" ry="4" height="286.4459" stroke="none"/>
      <rect x="472.6875" y="439.7326" clip-path="url(#clipPath2)" fill="rgb(235,235,235)" width="344.625" height="21.4609" stroke="none"/>
    </g>
    <g font-size="15" stroke-linecap="butt" transform="matrix(1,0,0,1,-400,70)" text-rendering="geometricPrecision" font-family="sans-serif" shape-rendering="geometricPrecision" stroke-miterlimit="1.45">
      <text x="738.9722" xml:space="preserve" y="455.6559" clip-path="url(#clipPath2)" stroke="none">Catalogue</text>
      <rect x="472.6875" y="439.7326" clip-path="url(#clipPath2)" fill="none" width="344.625" stroke-dasharray="6,2" rx="4" ry="4" height="286.4459"/>
    </g>
    <g text-rendering="geometricPrecision" shape-rendering="geometricPrecision" transform="matrix(1.3312,0,0,1.4831,219.6875,673.5968)">
      <g clip-path="url(#clipPath3)">
        <svg xml:space="preserve" opacity="1" writing-mode="lr-tb" stop-color="rgb(0, 0, 0)" shape-rendering="auto" glyph-orientation-horizontal="0deg" color-profile="auto" lighting-color="rgb(255, 255, 255)" color="rgb(0, 0, 0)" font-weight="400" alignment-baseline="auto" font-style="normal" version="1.1" color-interpolation-filters="linearrgb" text-anchor="start" stroke-linecap="butt" color-interpolation="srgb" font-variant="normal" word-spacing="normal" fill-opacity="1" text-rendering="auto" clip-path="none" text-decoration="none" letter-spacing="normal" viewBox="0 0 40 48" glyph-orientation-vertical="auto" display="inline" font-size-adjust="none" overflow="hidden" fill="rgb(0, 0, 0)" font-stretch="normal" stroke-dasharray="none" stroke-miterlimit="4" stop-opacity="1" color-rendering="auto" font-size="12" pointer-events="visiblepainted" mask="none" direction="ltr" baseline-shift="baseline" enable-background="new 0 0 40 48" fill-rule="nonzero" image-rendering="auto" stroke-dashoffset="0" width="40px" marker-end="none" clip="auto" cursor="auto" stroke="none" filter="none" visibility="visible" kerning="auto" stroke-width="1" font-family="&quot;Arial&quot;,&quot;Helvetica&quot;,sans-serif" flood-opacity="1" clip-rule="nonzero" src="none" height="48px" unicode-bidi="normal" stroke-linejoin="miter" stroke-opacity="1" flood-color="rgb(0, 0, 0)" dominant-baseline="auto" marker-start="none" x="0px" marker-mid="none" y="0px">
<defs>
<clipPath clipPathUnits="userSpaceOnUse" id="clipPath1">
              <path d="M0 0 L491 0 L491 812 L0 812 L0 0 Z"/>
            </clipPath>
            <clipPath clipPathUnits="userSpaceOnUse" id="clipPath2">
              <path d="M400 -70 L891 -70 L891 742 L400 742 L400 -70 Z"/>
            </clipPath>
            <clipPath clipPathUnits="userSpaceOnUse" id="clipPath3">
              <path d="M-165.0284 -454.1935 L203.8089 -454.1935 L203.8089 93.3227 L-165.0284 93.3227 L-165.0284 -454.1935 Z"/>
            </clipPath>
            <clipPath clipPathUnits="userSpaceOnUse" id="clipPath4">
              <path d="M-251.6702 -22.3428 L78.1248 -22.3428 L78.1248 464.7948 L-251.6702 464.7948 L-251.6702 -22.3428 Z"/>
            </clipPath>
            <clipPath clipPathUnits="userSpaceOnUse" id="clipPath5">
              <path d="M-62.5354 -48.89 L428.4645 -48.89 L428.4645 740.9402 L-62.5354 740.9402 L-62.5354 -48.89 Z"/>
            </clipPath>
          </defs>
<linearGradient gradientTransform="matrix(1 0 0 1 -370.2002 -614.5742)" x1="370.2002" x2="409.4502" gradientUnits="userSpaceOnUse" y1="655.0938" y2="655.0938" id="svg1.SVGID_1_">
	<stop offset="0" style="stop-color:#4D4D4D"/>
	<stop offset="0.0558" style="stop-color:#5F5F5F"/>
	<stop offset="0.2103" style="stop-color:#8D8D8D"/>
	<stop offset="0.3479" style="stop-color:#AEAEAE"/>
	<stop offset="0.4623" style="stop-color:#C2C2C2"/>
	<stop offset="0.5394" style="stop-color:#C9C9C9"/>
	<stop offset="0.6247" style="stop-color:#C5C5C5"/>
	<stop offset="0.7072" style="stop-color:#BABABA"/>
	<stop offset="0.7885" style="stop-color:#A6A6A6"/>
	<stop offset="0.869" style="stop-color:#8B8B8B"/>
	<stop offset="0.9484" style="stop-color:#686868"/>
	<stop offset="1" style="stop-color:#4D4D4D"/>
</linearGradient>
<path fill="url(#svg1.SVGID_1_)" d="M19.625,37.613C8.787,37.613,0,35.738,0,33.425v10c0,2.313,8.787,4.188,19.625,4.188  c10.839,0,19.625-1.875,19.625-4.188v-10C39.25,35.738,30.464,37.613,19.625,37.613z"/>
<linearGradient gradientTransform="matrix(1 0 0 1 -370.2002 -614.5742)" x1="370.2002" x2="409.4502" gradientUnits="userSpaceOnUse" y1="649.0938" y2="649.0938" id="svg1.SVGID_2_">
	<stop offset="0" style="stop-color:#B3B3B3"/>
	<stop offset="0.0171" style="stop-color:#B6B6B6"/>
	<stop offset="0.235" style="stop-color:#D7D7D7"/>
	<stop offset="0.4168" style="stop-color:#EBEBEB"/>
	<stop offset="0.5394" style="stop-color:#F2F2F2"/>
	<stop offset="0.6579" style="stop-color:#EEEEEE"/>
	<stop offset="0.7724" style="stop-color:#E3E3E3"/>
	<stop offset="0.8853" style="stop-color:#CFCFCF"/>
	<stop offset="0.9965" style="stop-color:#B4B4B4"/>
	<stop offset="1" style="stop-color:#B3B3B3"/>
</linearGradient>
<path fill="url(#svg1.SVGID_2_)" d="M19.625,37.613c10.839,0,19.625-1.875,19.625-4.188l-1.229-2c0,2.168-8.235,3.927-18.396,3.927  c-9.481,0-17.396-1.959-18.396-3.927l-1.229,2C0,35.738,8.787,37.613,19.625,37.613z"/>
<linearGradient gradientTransform="matrix(1 0 0 1 -370.2002 -614.5742)" x1="371.4297" x2="408.2217" gradientUnits="userSpaceOnUse" y1="646" y2="646" id="svg1.SVGID_3_">
	<stop offset="0" style="stop-color:#C9C9C9"/>
	<stop offset="1" style="stop-color:#808080"/>
</linearGradient>
<ellipse rx="18.396" fill="url(#svg1.SVGID_3_)" ry="3.926" cx="19.625" cy="31.425"/>
<linearGradient gradientTransform="matrix(1 0 0 1 -370.2002 -614.5742)" x1="370.2002" x2="409.4502" gradientUnits="userSpaceOnUse" y1="641.0938" y2="641.0938" id="svg1.SVGID_4_">
	<stop offset="0" style="stop-color:#4D4D4D"/>
	<stop offset="0.0558" style="stop-color:#5F5F5F"/>
	<stop offset="0.2103" style="stop-color:#8D8D8D"/>
	<stop offset="0.3479" style="stop-color:#AEAEAE"/>
	<stop offset="0.4623" style="stop-color:#C2C2C2"/>
	<stop offset="0.5394" style="stop-color:#C9C9C9"/>
	<stop offset="0.6247" style="stop-color:#C5C5C5"/>
	<stop offset="0.7072" style="stop-color:#BABABA"/>
	<stop offset="0.7885" style="stop-color:#A6A6A6"/>
	<stop offset="0.869" style="stop-color:#8B8B8B"/>
	<stop offset="0.9484" style="stop-color:#686868"/>
	<stop offset="1" style="stop-color:#4D4D4D"/>
</linearGradient>
<path fill="url(#svg1.SVGID_4_)" d="M19.625,23.613C8.787,23.613,0,21.738,0,19.425v10c0,2.313,8.787,4.188,19.625,4.188  c10.839,0,19.625-1.875,19.625-4.188v-10C39.25,21.738,30.464,23.613,19.625,23.613z"/>
<linearGradient gradientTransform="matrix(1 0 0 1 -370.2002 -614.5742)" x1="370.2002" x2="409.4502" gradientUnits="userSpaceOnUse" y1="635.0938" y2="635.0938" id="svg1.SVGID_5_">
	<stop offset="0" style="stop-color:#B3B3B3"/>
	<stop offset="0.0171" style="stop-color:#B6B6B6"/>
	<stop offset="0.235" style="stop-color:#D7D7D7"/>
	<stop offset="0.4168" style="stop-color:#EBEBEB"/>
	<stop offset="0.5394" style="stop-color:#F2F2F2"/>
	<stop offset="0.6579" style="stop-color:#EEEEEE"/>
	<stop offset="0.7724" style="stop-color:#E3E3E3"/>
	<stop offset="0.8853" style="stop-color:#CFCFCF"/>
	<stop offset="0.9965" style="stop-color:#B4B4B4"/>
	<stop offset="1" style="stop-color:#B3B3B3"/>
</linearGradient>
<path fill="url(#svg1.SVGID_5_)" d="M19.625,23.613c10.839,0,19.625-1.875,19.625-4.188l-1.229-2c0,2.168-8.235,3.926-18.396,3.926  c-9.481,0-17.396-1.959-18.396-3.926l-1.229,2C0,21.738,8.787,23.613,19.625,23.613z"/>
<linearGradient gradientTransform="matrix(1 0 0 1 -370.2002 -614.5742)" x1="371.4297" x2="408.2217" gradientUnits="userSpaceOnUse" y1="632" y2="632" id="svg1.SVGID_6_">
	<stop offset="0" style="stop-color:#C9C9C9"/>
	<stop offset="1" style="stop-color:#808080"/>
</linearGradient>
<ellipse rx="18.396" fill="url(#svg1.SVGID_6_)" ry="3.926" cx="19.625" cy="17.426"/>
<linearGradient gradientTransform="matrix(1 0 0 1 -370.2002 -614.5742)" x1="370.2002" x2="409.4502" gradientUnits="userSpaceOnUse" y1="627.5938" y2="627.5938" id="svg1.SVGID_7_">
	<stop offset="0" style="stop-color:#4D4D4D"/>
	<stop offset="0.0558" style="stop-color:#5F5F5F"/>
	<stop offset="0.2103" style="stop-color:#8D8D8D"/>
	<stop offset="0.3479" style="stop-color:#AEAEAE"/>
	<stop offset="0.4623" style="stop-color:#C2C2C2"/>
	<stop offset="0.5394" style="stop-color:#C9C9C9"/>
	<stop offset="0.6247" style="stop-color:#C5C5C5"/>
	<stop offset="0.7072" style="stop-color:#BABABA"/>
	<stop offset="0.7885" style="stop-color:#A6A6A6"/>
	<stop offset="0.869" style="stop-color:#8B8B8B"/>
	<stop offset="0.9484" style="stop-color:#686868"/>
	<stop offset="1" style="stop-color:#4D4D4D"/>
</linearGradient>
<path fill="url(#svg1.SVGID_7_)" d="M19.625,10.113C8.787,10.113,0,8.238,0,5.925v10c0,2.313,8.787,4.188,19.625,4.188  c10.839,0,19.625-1.875,19.625-4.188v-10C39.25,8.238,30.464,10.113,19.625,10.113z"/>
<linearGradient gradientTransform="matrix(1 0 0 1 -370.2002 -614.5742)" x1="370.2002" x2="409.4502" gradientUnits="userSpaceOnUse" y1="621.5938" y2="621.5938" id="svg1.SVGID_8_">
	<stop offset="0" style="stop-color:#B3B3B3"/>
	<stop offset="0.0171" style="stop-color:#B6B6B6"/>
	<stop offset="0.235" style="stop-color:#D7D7D7"/>
	<stop offset="0.4168" style="stop-color:#EBEBEB"/>
	<stop offset="0.5394" style="stop-color:#F2F2F2"/>
	<stop offset="0.6579" style="stop-color:#EEEEEE"/>
	<stop offset="0.7724" style="stop-color:#E3E3E3"/>
	<stop offset="0.8853" style="stop-color:#CFCFCF"/>
	<stop offset="0.9965" style="stop-color:#B4B4B4"/>
	<stop offset="1" style="stop-color:#B3B3B3"/>
</linearGradient>
<path fill="url(#svg1.SVGID_8_)" d="M19.625,10.113c10.839,0,19.625-1.875,19.625-4.188l-1.229-2c0,2.168-8.235,3.926-18.396,3.926  c-9.481,0-17.396-1.959-18.396-3.926L0,5.925C0,8.238,8.787,10.113,19.625,10.113z"/>
<linearGradient gradientTransform="matrix(1 0 0 1 -370.2002 -614.5742)" x1="371.4297" x2="408.2217" gradientUnits="userSpaceOnUse" y1="618.5" y2="618.5" id="svg1.SVGID_9_">
	<stop offset="0" style="stop-color:#C9C9C9"/>
	<stop offset="1" style="stop-color:#808080"/>
</linearGradient>
<ellipse rx="18.396" fill="url(#svg1.SVGID_9_)" ry="3.926" cx="19.625" cy="3.926"/>
<path fill="#FFFFFF" d="M31.291,46.792c0,0-4.313,0.578-7.249,0.694  C20.917,47.613,15,47.613,15,47.613l-2.443-10.279l-0.119-2.283l-1.231-1.842L9.789,23.024l-0.082-0.119L9.3,20.715l-1.45-1.44  L5.329,8.793c0,0,5.296,0.882,7.234,1.07s8.375,0.25,8.375,0.25l3,9.875l-0.25,1.313l1.063,2.168l2.312,9.644l-0.375,1.875  l1.627,2.193L31.291,46.792z" enable-background="new    " opacity="0.24"/>
</svg>
      </g>
    </g>
    <g text-rendering="geometricPrecision" stroke-miterlimit="1.45" shape-rendering="geometricPrecision" font-family="sans-serif" transform="matrix(1,0,0,1,-400,70)" stroke-linecap="butt">
      <text x="591.0098" xml:space="preserve" y="691.3484" clip-path="url(#clipPath2)" stroke="none">Database (SQLite)</text>
    </g>
    <g fill="rgb(255,204,0)" text-rendering="geometricPrecision" shape-rendering="geometricPrecision" transform="matrix(1,0,0,1,-400,70)" stroke="rgb(255,204,0)">
      <rect x="503.3125" width="74" height="46" y="575" clip-path="url(#clipPath2)" stroke="none"/>
    </g>
    <g text-rendering="geometricPrecision" stroke-miterlimit="1.45" shape-rendering="geometricPrecision" font-family="sans-serif" transform="matrix(1,0,0,1,-400,70)" stroke-linecap="butt">
      <text x="512.4189" xml:space="preserve" y="602.1543" clip-path="url(#clipPath2)" stroke="none">Problems</text>
      <rect fill="none" x="503.3125" width="74" height="46" y="575" clip-path="url(#clipPath2)"/>
    </g>
    <g fill="rgb(255,204,0)" text-rendering="geometricPrecision" shape-rendering="geometricPrecision" transform="matrix(1,0,0,1,-400,70)" stroke="rgb(255,204,0)">
      <rect x="557.3125" width="74" height="46" y="499" clip-path="url(#clipPath2)" stroke="none"/>
    </g>
    <g text-rendering="geometricPrecision" stroke-miterlimit="1.45" shape-rendering="geometricPrecision" font-family="sans-serif" transform="matrix(1,0,0,1,-400,70)" stroke-linecap="butt">
      <text x="566.7441" xml:space="preserve" y="526.1543" clip-path="url(#clipPath2)" stroke="none">Solutions</text>
      <rect fill="none" x="557.3125" width="74" height="46" y="499" clip-path="url(#clipPath2)"/>
    </g>
    <g fill="rgb(255,204,0)" text-rendering="geometricPrecision" shape-rendering="geometricPrecision" transform="matrix(1,0,0,1,-400,70)" stroke="rgb(255,204,0)">
      <rect x="665.625" width="74" height="46" y="499" clip-path="url(#clipPath2)" stroke="none"/>
    </g>
    <g text-rendering="geometricPrecision" stroke-miterlimit="1.45" shape-rendering="geometricPrecision" font-family="sans-serif" transform="matrix(1,0,0,1,-400,70)" stroke-linecap="butt">
      <text x="672.1035" xml:space="preserve" y="526.1543" clip-path="url(#clipPath2)" stroke="none">Toolboxes</text>
      <rect fill="none" x="665.625" width="74" height="46" y="499" clip-path="url(#clipPath2)"/>
    </g>
    <g fill="rgb(255,204,0)" text-rendering="geometricPrecision" shape-rendering="geometricPrecision" transform="matrix(1,0,0,1,-400,70)" stroke="rgb(255,204,0)">
      <rect x="714.3125" width="74" height="46" y="575" clip-path="url(#clipPath2)" stroke="none"/>
    </g>
    <g text-rendering="geometricPrecision" stroke-miterlimit="1.45" shape-rendering="geometricPrecision" font-family="sans-serif" transform="matrix(1,0,0,1,-400,70)" stroke-linecap="butt">
      <text x="734.5107" xml:space="preserve" y="602.1543" clip-path="url(#clipPath2)" stroke="none">Users</text>
      <rect fill="none" x="714.3125" width="74" height="46" y="575" clip-path="url(#clipPath2)"/>
    </g>
    <g text-rendering="geometricPrecision" shape-rendering="geometricPrecision" transform="matrix(1.4888,0,0,1.6669,374.6875,37.2427)">
      <g clip-path="url(#clipPath4)">
        <svg xml:space="preserve" opacity="1" writing-mode="lr-tb" stop-color="rgb(0, 0, 0)" shape-rendering="auto" glyph-orientation-horizontal="0deg" color-profile="auto" lighting-color="rgb(255, 255, 255)" color="rgb(0, 0, 0)" font-weight="400" alignment-baseline="auto" font-style="normal" version="1.1" color-interpolation-filters="linearrgb" text-anchor="start" stroke-linecap="butt" color-interpolation="srgb" font-variant="normal" word-spacing="normal" fill-opacity="1" text-rendering="auto" clip-path="none" text-decoration="none" letter-spacing="normal" viewBox="0 -0.741 36 57" glyph-orientation-vertical="auto" display="inline" font-size-adjust="none" overflow="hidden" fill="rgb(0, 0, 0)" font-stretch="normal" stroke-dasharray="none" stroke-miterlimit="4" stop-opacity="1" color-rendering="auto" font-size="12" pointer-events="visiblepainted" mask="none" direction="ltr" baseline-shift="baseline" enable-background="new 0 -0.741 36 57" fill-rule="nonzero" image-rendering="auto" stroke-dashoffset="0" width="36px" marker-end="none" clip="auto" cursor="auto" stroke="none" filter="none" visibility="visible" kerning="auto" stroke-width="1" font-family="&quot;Arial&quot;,&quot;Helvetica&quot;,sans-serif" flood-opacity="1" clip-rule="nonzero" src="none" height="57px" unicode-bidi="normal" stroke-linejoin="miter" stroke-opacity="1" flood-color="rgb(0, 0, 0)" dominant-baseline="auto" marker-start="none" x="0px" marker-mid="none" y="0px">
<defs>
</defs>
<linearGradient gradientTransform="matrix(1 0 0 1 -195.2002 -770.8008)" x1="230.1768" x2="180.3346" gradientUnits="userSpaceOnUse" y1="798.6021" y2="798.6021" id="svg2.SVGID_1_">
	<stop offset="0" style="stop-color:#4D4D4D"/>
	<stop offset="1" style="stop-color:#8D8D8D"/>
</linearGradient>
<rect fill="url(#svg2.SVGID_1_)" width="34.977" y="0.943" height="53.716"/>
<linearGradient gradientTransform="matrix(1 0 0 1 -195.2002 -770.8008)" x1="224.6807" x2="200.6973" gradientUnits="userSpaceOnUse" y1="798.6021" y2="798.6021" id="svg2.SVGID_2_">
	<stop offset="0.0319" style="stop-color:#848484"/>
	<stop offset="0.1202" style="stop-color:#8C8C8C"/>
	<stop offset="0.308" style="stop-color:#969696"/>
	<stop offset="0.5394" style="stop-color:#999999"/>
	<stop offset="0.5501" style="stop-color:#9C9C9C"/>
	<stop offset="0.6256" style="stop-color:#B0B0B0"/>
	<stop offset="0.7118" style="stop-color:#BEBEBE"/>
	<stop offset="0.8178" style="stop-color:#C7C7C7"/>
	<stop offset="1" style="stop-color:#C9C9C9"/>
</linearGradient>
<path fill="url(#svg2.SVGID_2_)" d="M5.497,0.943c7.945-1.258,16.04-1.258,23.983,0c0,17.905,0,35.811,0,53.716  c-7.943,1.258-16.039,1.258-23.983,0C5.497,36.753,5.497,18.848,5.497,0.943z"/>
<path fill="#515151" d="M5.497,14.621c7.995,0,15.989,0,23.983,0c0,13.346,0,26.693,0,40.037c-7.943,1.258-16.039,1.258-23.983,0  C5.497,41.314,5.497,27.967,5.497,14.621z"/>
<path fill="#565656" opacity="0.43" d="M5.497,4.745c7.982-0.628,16.001-0.628,23.983,0c0,2.707,0,5.413,0,8.12  c-7.994,0-15.989,0-23.983,0C5.497,10.158,5.497,7.452,5.497,4.745z"/>
<path fill="none" stroke-width="0.0999" d="M5.497,4.745  c7.982-0.628,16.001-0.628,23.983,0c0,2.707,0,5.413,0,8.12c-7.994,0-15.989,0-23.983,0C5.497,10.158,5.497,7.452,5.497,4.745z" stroke-miterlimit="10" opacity="0.43" stroke="#4D4D4D"/>
<polygon enable-background="new    " points="  6.496,5.746 9.869,5.606 9.869,6.661 6.496,6.799 " fill="#565656" opacity="0.43" stroke="#4D4D4D" stroke-width="0.0135" stroke-miterlimit="10"/>
<rect x="31.307" y="2.517" fill="#E7ED00" width="3.692" height="1.505" stroke="#717171" stroke-width="0.1926" stroke-miterlimit="10"/>
<rect x="31.307" y="5.8" fill="#C8FF00" width="3.692" height="1.507" stroke="#717171" stroke-width="0.1926" stroke-miterlimit="10"/>
<linearGradient y2="35.1235" id="svg2.SVGID_3_" x1="29.4414" gradientUnits="userSpaceOnUse" x2="5.4995" y1="35.1235">
	<stop offset="0" style="stop-color:#808080"/>
	<stop offset="0.1907" style="stop-color:#828282"/>
	<stop offset="0.2955" style="stop-color:#8A8A8A"/>
	<stop offset="0.3795" style="stop-color:#989898"/>
	<stop offset="0.4524" style="stop-color:#ACACAC"/>
	<stop offset="0.5175" style="stop-color:#C5C5C5"/>
	<stop offset="0.5273" style="stop-color:#C9C9C9"/>
	<stop offset="0.5914" style="stop-color:#C9C9C9"/>
	<stop offset="0.9681" style="stop-color:#C9C9C9"/>
</linearGradient>
<path fill="url(#svg2.SVGID_3_)" d="M5.5,14.822c0,13.22,0,26.438,0,39.66c7.931,1.256,16.012,1.256,23.941,0c0-13.222,0-26.439,0-39.66  C21.461,14.822,13.48,14.822,5.5,14.822z M28.396,18.703c-0.74,0.01-1.482,0.02-2.225,0.029c0-0.951,0-1.901-0.001-2.85  c0.742-0.003,1.483-0.005,2.224-0.008C28.396,16.817,28.396,17.76,28.396,18.703z M16.354,42.496c0-0.961,0-1.924,0-2.885  c0.744,0.006,1.489,0.006,2.233,0c0,0.961,0,1.924,0,2.885C17.843,42.503,17.098,42.503,16.354,42.496z M18.587,43.568  c0,0.955,0,1.91,0,2.866c-0.744,0.009-1.489,0.009-2.234,0c0-0.956,0-1.911,0-2.866C17.098,43.574,17.843,43.574,18.587,43.568z   M18.586,27.742c0,0.961,0,1.922,0,2.886c-0.744,0.004-1.488,0.004-2.231,0c0-0.964,0-1.925,0-2.886  C17.099,27.746,17.842,27.746,18.586,27.742z M16.354,26.671c0-0.955,0-1.91,0-2.865c0.743,0.002,1.487,0.002,2.23,0  c0,0.955,0,1.91,0,2.865C17.842,26.675,17.099,26.675,16.354,26.671z M16.354,34.583c0-0.961,0-1.924,0-2.885  c0.744,0.004,1.488,0.004,2.231,0c0,0.961,0,1.924,0,2.885C17.842,34.588,17.099,34.588,16.354,34.583z M18.586,35.656  c0,0.961,0,1.924,0.001,2.885c-0.745,0.008-1.489,0.008-2.233,0c0-0.961,0-1.924,0-2.885C17.099,35.66,17.842,35.66,18.586,35.656z   M15.307,30.619c-0.742-0.01-1.484-0.021-2.227-0.039c0-0.957,0-1.916,0-2.875c0.742,0.014,1.485,0.023,2.226,0.029  C15.307,28.695,15.307,29.656,15.307,30.619z M15.307,31.689c0,0.961,0,1.924,0,2.885c-0.742-0.012-1.485-0.025-2.227-0.047  c0-0.959,0.001-1.92,0.001-2.877C13.822,31.667,14.565,31.68,15.307,31.689z M15.307,35.644c0,0.959,0,1.922-0.001,2.883  c-0.742-0.012-1.485-0.031-2.228-0.056c0-0.959,0.001-1.918,0.001-2.877C13.821,35.617,14.564,35.633,15.307,35.644z M15.306,39.597  c0,0.96,0,1.922,0,2.883c-0.742-0.016-1.486-0.037-2.228-0.064c0-0.959,0-1.916,0.001-2.877  C13.82,39.564,14.563,39.585,15.306,39.597z M19.637,39.597c0.742-0.012,1.484-0.033,2.227-0.059c0,0.959,0,1.918,0,2.875  c-0.741,0.029-1.483,0.052-2.227,0.064C19.637,41.519,19.637,40.559,19.637,39.597z M19.637,38.527c0-0.961,0-1.924,0-2.883  c0.74-0.012,1.482-0.027,2.225-0.05c0,0.959,0,1.918,0.002,2.876C21.121,38.496,20.377,38.515,19.637,38.527z M19.637,34.572  c0-0.961,0-1.922-0.002-2.883c0.741-0.01,1.483-0.021,2.225-0.039c0.002,0.957,0.002,1.916,0.002,2.875  C21.119,34.547,20.376,34.564,19.637,34.572z M19.635,30.619c0-0.963,0-1.924,0-2.885c0.74-0.006,1.483-0.017,2.225-0.029  c0,0.959,0,1.916,0,2.875C21.118,30.599,20.376,30.609,19.635,30.619z M19.633,26.666c0-0.955,0-1.909,0-2.864  c0.741-0.005,1.483-0.013,2.227-0.021c0,0.951,0,1.903,0,2.856C21.118,26.65,20.375,26.66,19.633,26.666z M19.633,22.732  c-0.001-0.963-0.001-1.924-0.001-2.885c0.741-0.002,1.483-0.006,2.226-0.012c0,0.959,0.002,1.918,0.002,2.877  C21.116,22.72,20.374,22.728,19.633,22.732z M18.586,22.736c-0.744,0.002-1.487,0.002-2.23,0c0-0.963,0-1.924,0-2.887  c0.743,0.002,1.487,0.002,2.23,0C18.586,20.813,18.586,21.773,18.586,22.736z M15.309,22.732c-0.742-0.004-1.483-0.012-2.226-0.02  c0-0.959,0.001-1.918,0.001-2.877c0.742,0.006,1.484,0.01,2.226,0.012C15.31,20.808,15.309,21.769,15.309,22.732z M15.309,23.801  c0,0.955,0,1.91,0,2.864c-0.742-0.006-1.483-0.016-2.227-0.027c0-0.953,0-1.906,0-2.859C13.825,23.789,14.566,23.796,15.309,23.801z   M12.036,26.617c-0.742-0.017-1.483-0.033-2.225-0.055c0-0.947,0-1.895,0.001-2.841c0.741,0.019,1.483,0.031,2.225,0.042  C12.037,24.716,12.036,25.666,12.036,26.617z M12.035,27.683c0,0.957,0,1.916,0,2.873c-0.742-0.021-1.483-0.047-2.225-0.076  c0-0.953,0-1.904,0-2.857C10.552,27.646,11.293,27.667,12.035,27.683z M12.035,31.621c0,0.957-0.001,1.914-0.001,2.871  c-0.742-0.023-1.483-0.055-2.224-0.092c0-0.953,0-1.906,0-2.859C10.551,31.572,11.292,31.6,12.035,31.621z M12.033,35.56  c0,0.956-0.001,1.914-0.001,2.871c-0.742-0.031-1.484-0.066-2.225-0.111c0-0.953,0.001-1.906,0.001-2.858  C10.549,35.5,11.291,35.533,12.033,35.56z M12.031,39.498c0,0.955,0,1.914-0.001,2.869c-0.742-0.035-1.484-0.078-2.225-0.129  c0-0.953,0-1.904,0.001-2.857C10.547,39.426,11.289,39.465,12.031,39.498z M12.03,43.435c0,0.951-0.001,1.901-0.001,2.854  c-0.742-0.041-1.484-0.09-2.225-0.149c0-0.944,0.001-1.892,0.001-2.838C10.546,43.353,11.288,43.4,12.03,43.435z M13.077,43.482  c0.743,0.031,1.486,0.053,2.228,0.067c0,0.956,0,1.91,0,2.864c-0.742-0.016-1.486-0.041-2.229-0.074  C13.077,45.389,13.077,44.435,13.077,43.482z M15.305,47.486c0,0.961,0,1.922,0,2.883c-0.743-0.019-1.487-0.047-2.23-0.084  c0-0.959,0-1.918,0.001-2.875C13.818,47.443,14.562,47.468,15.305,47.486z M16.353,47.504c0.745,0.009,1.49,0.009,2.234,0  c0.001,0.96,0.001,1.924,0.001,2.883c-0.745,0.011-1.49,0.011-2.235,0C16.353,49.427,16.353,48.464,16.353,47.504z M19.639,47.486  c0.741-0.018,1.483-0.043,2.227-0.076c0,0.957,0.002,1.916,0.002,2.875c-0.742,0.037-1.486,0.065-2.229,0.084  C19.639,49.406,19.639,48.447,19.639,47.486z M19.637,46.414c0-0.954,0-1.908,0-2.864c0.742-0.015,1.484-0.036,2.229-0.067  c0,0.953,0,1.905,0,2.857C21.122,46.373,20.379,46.398,19.637,46.414z M22.911,43.435c0.741-0.035,1.483-0.082,2.224-0.135  c0,0.945,0,1.895,0.002,2.838c-0.74,0.059-1.482,0.107-2.226,0.15C22.911,45.336,22.911,44.386,22.911,43.435z M22.911,42.369  c-0.001-0.957-0.001-1.914-0.002-2.871c0.741-0.032,1.483-0.069,2.225-0.117c0,0.954,0.001,1.906,0.001,2.857  C24.395,42.289,23.652,42.333,22.911,42.369z M22.909,38.431c0-0.957-0.001-1.915-0.001-2.871c0.742-0.027,1.482-0.061,2.224-0.098  c0.001,0.951,0.001,1.904,0.001,2.857C24.393,38.363,23.65,38.4,22.909,38.431z M22.908,34.494c0-0.957-0.002-1.916-0.002-2.871  c0.742-0.021,1.482-0.051,2.225-0.079c0,0.952,0,1.903,0.001,2.856C24.391,34.437,23.648,34.468,22.908,34.494z M22.906,30.556  c0-0.957,0-1.916-0.002-2.873c0.742-0.016,1.484-0.037,2.226-0.061c0,0.953,0.001,1.904,0.001,2.857  C24.391,30.509,23.648,30.535,22.906,30.556z M22.904,26.617c0-0.951,0-1.901,0-2.854c0.74-0.011,1.482-0.025,2.224-0.042  c0,0.946,0.001,1.894,0.001,2.841C24.389,26.583,23.646,26.601,22.904,26.617z M22.902,22.699c0-0.957,0-1.916,0-2.874  c0.742-0.007,1.482-0.014,2.225-0.023c0.001,0.953,0.001,1.906,0.001,2.859C24.387,22.676,23.646,22.689,22.902,22.699z   M22.902,18.76C22.9,17.802,22.9,16.845,22.9,15.887c0.742,0,1.481-0.003,2.225-0.004c0.001,0.953,0.001,1.906,0.002,2.858  C24.385,18.75,23.643,18.756,22.902,18.76z M21.855,18.767c-0.742,0.004-1.482,0.007-2.225,0.009c0-0.961,0-1.922,0-2.884  c0.741,0,1.482-0.001,2.225-0.002C21.855,16.849,21.855,17.808,21.855,18.767z M18.585,18.779c-0.743,0.001-1.486,0.001-2.229,0  c0-0.961,0-1.923,0-2.885c0.742,0,1.486,0,2.229,0C18.585,16.855,18.585,17.817,18.585,18.779z M15.31,18.777  c-0.742-0.002-1.483-0.005-2.225-0.009c0-0.959,0-1.918,0-2.877c0.742,0,1.483,0.001,2.225,0.002  C15.31,16.854,15.31,17.815,15.31,18.777z M12.039,18.76c-0.742-0.005-1.483-0.011-2.225-0.019c0-0.953,0-1.905,0.001-2.858  c0.742,0.001,1.483,0.004,2.224,0.004C12.039,16.845,12.039,17.803,12.039,18.76z M12.039,19.827c0,0.957-0.001,1.915-0.001,2.872  c-0.741-0.01-1.483-0.021-2.224-0.035c0-0.953,0-1.906,0-2.859C10.555,19.813,11.296,19.819,12.039,19.827z M8.768,22.64  c-0.741-0.018-1.482-0.035-2.223-0.057c0-0.943,0-1.887,0-2.831c0.741,0.013,1.482,0.025,2.223,0.036  C8.768,20.739,8.768,21.689,8.768,22.64z M8.767,23.697c0,0.944,0,1.89,0,2.832c-0.741-0.024-1.482-0.053-2.223-0.084  c0-0.938,0-1.873,0-2.811C7.284,23.658,8.026,23.679,8.767,23.697z M8.766,27.587c0,0.949-0.001,1.898-0.001,2.85  c-0.74-0.033-1.481-0.068-2.222-0.111c0-0.942,0-1.887,0-2.83C7.284,27.529,8.025,27.56,8.766,27.587z M8.765,31.494  c0,0.951-0.001,1.9-0.001,2.852c-0.74-0.04-1.481-0.087-2.221-0.139c0-0.943,0-1.887,0-2.831C7.283,31.42,8.023,31.459,8.765,31.494  z M8.763,35.404c0,0.949,0,1.899,0,2.851c-0.741-0.052-1.481-0.104-2.22-0.168c0-0.942,0-1.886,0-2.829  C7.282,35.31,8.022,35.361,8.763,35.404z M8.762,39.312c0,0.949,0,1.899-0.001,2.852c-0.741-0.059-1.48-0.123-2.219-0.195  c0-0.943,0-1.889,0-2.83C7.281,39.203,8.021,39.26,8.762,39.312z M8.76,43.219c0,0.944,0,1.888-0.001,2.832  c-0.74-0.065-1.479-0.14-2.218-0.224c0-0.938,0-1.875,0-2.812C7.281,43.092,8.02,43.16,8.76,43.219z M8.759,47.109  c0,0.951,0,1.9,0,2.851c-0.741-0.073-1.48-0.158-2.219-0.253c0-0.942,0-1.887,0-2.828C7.279,46.964,8.019,47.039,8.759,47.109z   M9.804,47.201c0.741,0.06,1.483,0.111,2.224,0.154c0,0.955,0,1.912,0,2.868c-0.742-0.045-1.484-0.103-2.225-0.166  C9.804,49.107,9.804,48.154,9.804,47.201z M12.027,51.291c0,0.957,0,1.916,0,2.873c-0.742-0.053-1.484-0.114-2.225-0.188  c0-0.951,0.001-1.904,0.001-2.857C10.544,51.187,11.285,51.244,12.027,51.291z M13.075,51.353c0.743,0.039,1.486,0.067,2.229,0.086  c0,0.961,0,1.922,0,2.885c-0.743-0.021-1.487-0.053-2.229-0.094C13.075,53.269,13.075,52.312,13.075,51.353z M16.353,51.459  c0.745,0.009,1.49,0.009,2.235,0c0,0.961,0,1.924,0,2.885c-0.745,0.013-1.491,0.013-2.235,0  C16.353,53.382,16.353,52.42,16.353,51.459z M19.639,51.439c0.741-0.019,1.485-0.049,2.229-0.086c0,0.959,0,1.92,0.001,2.877  c-0.743,0.041-1.485,0.072-2.229,0.094C19.639,53.361,19.639,52.4,19.639,51.439z M22.913,51.291  c0.743-0.047,1.483-0.104,2.226-0.172c0,0.953,0,1.906,0,2.857c-0.74,0.073-1.481,0.135-2.224,0.188  C22.914,53.205,22.914,52.248,22.913,51.291z M22.913,50.224c-0.001-0.956-0.001-1.912-0.001-2.869  c0.742-0.043,1.484-0.095,2.225-0.154c0,0.953,0,1.906,0.002,2.857C24.396,50.123,23.654,50.179,22.913,50.224z M26.184,47.109  c0.739-0.066,1.479-0.145,2.217-0.229c0,0.942,0,1.887,0,2.83c-0.736,0.092-1.478,0.177-2.217,0.252  C26.184,49.009,26.184,48.06,26.184,47.109z M26.184,46.051c-0.002-0.944-0.002-1.888-0.002-2.832  c0.739-0.06,1.48-0.127,2.219-0.202c0,0.938,0,1.873,0,2.811C27.662,45.912,26.923,45.986,26.184,46.051z M26.182,42.162  c0-0.95-0.002-1.9-0.002-2.85c0.74-0.052,1.48-0.109,2.219-0.176c0.002,0.943,0.002,1.887,0.002,2.83  C27.662,42.039,26.921,42.105,26.182,42.162z M26.18,38.253c0-0.95,0-1.9-0.002-2.852c0.742-0.041,1.482-0.093,2.221-0.146  c0,0.942,0,1.887,0,2.829C27.66,38.15,26.92,38.203,26.18,38.253z M26.178,34.345c0-0.949,0-1.898,0-2.852  c0.74-0.034,1.481-0.073,2.221-0.117c0,0.943,0,1.887,0,2.83C27.659,34.258,26.918,34.305,26.178,34.345z M26.177,30.437  c0-0.949,0-1.9-0.001-2.85c0.741-0.027,1.481-0.059,2.221-0.092c0,0.943,0.002,1.888,0.002,2.83  C27.659,30.367,26.918,30.404,26.177,30.437z M26.176,26.529c-0.001-0.942-0.001-1.888-0.001-2.832  c0.742-0.018,1.482-0.039,2.222-0.063c0,0.938,0,1.873,0,2.811C27.657,26.476,26.917,26.503,26.176,26.529z M26.174,22.64  c0-0.951-0.001-1.901-0.001-2.851c0.741-0.01,1.483-0.022,2.224-0.035c0,0.943,0,1.886,0,2.831  C27.657,22.605,26.915,22.623,26.174,22.64z M8.769,15.881c0,0.95,0,1.9-0.001,2.85c-0.741-0.008-1.482-0.018-2.223-0.028  c0-0.943,0-1.887,0-2.83C7.286,15.876,8.028,15.878,8.769,15.881z M6.54,50.758c0.738,0.097,1.478,0.183,2.218,0.258  c0,0.95,0,1.901,0,2.853c-0.741-0.084-1.48-0.178-2.218-0.28C6.54,52.646,6.54,51.701,6.54,50.758z M26.184,53.869  c0-0.95,0-1.899,0-2.853c0.739-0.075,1.479-0.163,2.217-0.259c0.002,0.941,0.002,1.889,0.002,2.83  C27.663,53.693,26.925,53.785,26.184,53.869z"/>
<path fill="#FFFFFF" id="svg2.highlight_2_" d="M0,0.943h5.497c0,0,6.847-0.943,11.974-0.943  C22.6,0,29.48,0.943,29.48,0.943h5.496v41.951c0,0-12.076-0.521-18.623-2.548C9.807,38.32,0,30.557,0,30.557V0.943z" enable-background="new    " opacity="0.17"/>
</svg>
      </g>
    </g>
    <g text-rendering="geometricPrecision" stroke-miterlimit="1.45" shape-rendering="geometricPrecision" font-family="sans-serif" transform="matrix(1,0,0,1,-400,70)" stroke-linecap="butt">
      <text x="783.3604" xml:space="preserve" y="-40.8773" clip-path="url(#clipPath2)" stroke="none">Portal</text>
    </g>
    <g text-rendering="geometricPrecision" shape-rendering="geometricPrecision" transform="matrix(1,0,0,1.0281,62.5354,50.2623)">
      <g clip-path="url(#clipPath5)">
        <svg xml:space="preserve" opacity="1" writing-mode="lr-tb" stop-color="rgb(0, 0, 0)" shape-rendering="auto" glyph-orientation-horizontal="0deg" color-profile="auto" lighting-color="rgb(255, 255, 255)" color="rgb(0, 0, 0)" font-weight="400" alignment-baseline="auto" font-style="normal" version="1.1" color-interpolation-filters="linearrgb" text-anchor="start" stroke-linecap="butt" color-interpolation="srgb" font-variant="normal" word-spacing="normal" fill-opacity="1" text-rendering="auto" clip-path="none" text-decoration="none" letter-spacing="normal" viewBox="0 0 57 65" glyph-orientation-vertical="auto" display="inline" font-size-adjust="none" overflow="hidden" fill="rgb(0, 0, 0)" font-stretch="normal" stroke-dasharray="none" id="svg3.Ebene_1" stroke-miterlimit="4" stop-opacity="1" color-rendering="auto" font-size="12" pointer-events="visiblepainted" mask="none" direction="ltr" baseline-shift="baseline" enable-background="new 0 0 57 65" fill-rule="nonzero" image-rendering="auto" stroke-dashoffset="0" width="57px" marker-end="none" clip="auto" cursor="auto" stroke="none" filter="none" visibility="visible" kerning="auto" stroke-width="1" font-family="&quot;Arial&quot;,&quot;Helvetica&quot;,sans-serif" flood-opacity="1" clip-rule="nonzero" src="none" height="65px" unicode-bidi="normal" stroke-linejoin="miter" stroke-opacity="1" flood-color="rgb(0, 0, 0)" dominant-baseline="auto" marker-start="none" x="0px" marker-mid="none" y="0px">
<g>
	
		<linearGradient gradientTransform="matrix(1 0 0 1 0.1602 -1546.3828)" x1="26.5" x2="27.741" gradientUnits="userSpaceOnUse" y1="1570.3457" y2="1600.1431" id="svg3.SVGID_1_">
		<stop offset="0.2711" style="stop-color:#FFAB4F"/>
		<stop offset="1" style="stop-color:#FFD28F"/>
	</linearGradient>
	<path fill="url(#svg3.SVGID_1_)" d="M49.529,51.225c-4.396-4.396-10.951-5.884-12.063-6.109   V37.8H19.278c0,0,0.038,6.903,0,6.868c0,0-6.874,0.997-12.308,6.432C1.378,56.691,0.5,62.77,0.5,62.77   c0,1.938,1.575,3.492,3.523,3.492h48.51c1.947,0,3.521-1.558,3.521-3.492C56.055,62.768,54.211,55.906,49.529,51.225z" stroke-miterlimit="10" stroke="#ED9135"/>
	
		<radialGradient gradientTransform="matrix(1 0 0 1 0.1602 -1546.3828)" gradientUnits="userSpaceOnUse" r="23.4243" cx="27.7427" id="svg3.face_x5F_white_1_" cy="1572.1094" fx="23.1732" fy="1569.6195">
		<stop offset="0" style="stop-color:#FFD28F"/>
		<stop offset="1" style="stop-color:#FFAB4F"/>
	</radialGradient>
	<path fill="url(#svg3.face_x5F_white_1_)" id="svg3.face_x5F_white_3_" d="M43.676,23.357   c0.086,10.2-6.738,18.52-15.247,18.586c-8.502,0.068-15.466-8.146-15.552-18.344C12.794,13.4,19.618,5.079,28.123,5.012   C36.627,4.945,43.59,13.158,43.676,23.357z" stroke-miterlimit="10" stroke="#ED9135"/>
	
		<linearGradient gradientTransform="matrix(0.275 0 0 -0.2733 -977.2951 -1806.3545)" x1="3646.5117" x2="3670.1414" gradientUnits="userSpaceOnUse" y1="-6639.5884" y2="-6733.0391" id="svg3.face_highlight_1_">
		<stop offset="0" style="stop-color:#FFFFFF;stop-opacity:0.24"/>
		<stop offset="1" style="stop-color:#FFFFFF;stop-opacity:0.16"/>
	</linearGradient>
	<path fill="url(#svg3.face_highlight_1_)" id="svg3.face_highlight_3_" d="M27.958,6.333c-6.035,0.047-10.747,4.493-12.787,10.386   c-0.664,1.919-0.294,4.043,0.98,5.629c2.73,3.398,5.729,6.283,9.461,8.088c3.137,1.518,7.535,2.385,11.893,1.247   c2.274-0.592,3.988-2.459,4.375-4.766c0.183-1.094,0.293-2.289,0.283-3.553C42.083,13.952,36.271,6.268,27.958,6.333z"/>
	<path fill="#CC9869" d="M20.278,13.25   c3.417,4.333,9.333,6.917,9.333,6.917l-1.417-3.5c0,0,7.094,4.691,8.083,4.333c0.968-0.2-1.082-3.807-1.082-3.807   s3.138,1.795,4.854,3.969c1.803,2.28,4.285,3.504,4.285,3.504S47.027,2.719,27.289,2.744C8.278,2.709,12.058,27.678,12.058,27.678   L14.695,17c0,0,0.914,5.757,1.399,4.875C17.861,15.211,18.861,11.5,20.278,13.25z" id="svg3.Hair_Young_Brown_1_" stroke="#99724F" stroke-linecap="round" stroke-linejoin="round"/>
	
		<radialGradient gradientTransform="matrix(1 0 0 1 0.1602 -1546.3828)" id="svg3.collar_x5F_body_2_" r="32.4004" cx="15.1191" gradientUnits="userSpaceOnUse" cy="1603.5518">
		<stop offset="0" style="stop-color:#B0E8FF"/>
		<stop offset="1" style="stop-color:#74AEEE"/>
	</radialGradient>
	<path fill="url(#svg3.collar_x5F_body_2_)" d="M0.5,62.768c0,1.938,1.575,3.494,3.523,3.494   h48.51c1.947,0,3.521-1.559,3.521-3.494c0,0-1.844-6.861-6.525-11.543c-4.815-4.813-11.244-6.146-11.244-6.146   c-1.771,1.655-5.61,2.802-10.063,2.802c-4.453,0-8.292-1.146-10.063-2.802c0,0-5.755,0.586-11.189,6.021   C1.378,56.689,0.5,62.768,0.5,62.768z" id="svg3.collar_x5F_body_1_" stroke="#5491CF"/>
	
		<radialGradient gradientTransform="matrix(1 0 0 1 0.1602 -1546.3828)" id="svg3.collar_x5F_r_2_" r="9.2831" cx="31.46" gradientUnits="userSpaceOnUse" cy="1593.6777">
		<stop offset="0" style="stop-color:#80CCFF"/>
		<stop offset="1" style="stop-color:#74AEEE"/>
	</radialGradient>
	<path fill="url(#svg3.collar_x5F_r_2_)" d="M38.159,41.381c0,0-0.574,2.369-3.013,4.441   c-2.108,1.795-5.783,2.072-5.783,2.072l3.974,6.217c0,0,2.957-1.637,5.009-3.848c1.922-2.072,1.37-5.479,1.37-5.479L38.159,41.381z   " id="svg3.collar_x5F_r_1_" stroke="#5491CF"/>
	
		<radialGradient gradientTransform="matrix(1 0 0 1 0.1602 -1546.3828)" id="svg3.collar_x5F_l_2_" r="9.2837" cx="19.0977" gradientUnits="userSpaceOnUse" cy="1593.7188">
		<stop offset="0" style="stop-color:#80CCFF"/>
		<stop offset="1" style="stop-color:#74AEEE"/>
	</radialGradient>
	<path fill="url(#svg3.collar_x5F_l_2_)" d="M18.63,41.422c0,0,0.576,2.369,3.012,4.441   c2.109,1.793,5.785,2.072,5.785,2.072l-3.974,6.217c0,0-2.957-1.637-5.007-3.85c-1.922-2.072-1.37-5.48-1.37-5.48L18.63,41.422z" id="svg3.collar_x5F_l_1_" stroke="#5491CF"/>
	
		<linearGradient gradientTransform="matrix(0.9852 0 0 -0.9852 -18.8086 -1488.5884)" x1="79.9941" x2="15.6017" gradientUnits="userSpaceOnUse" y1="-1567.4565" y2="-1567.4565" id="svg3.body_1_">
		<stop offset="0" style="stop-color:#49AD33"/>
		<stop offset="1" style="stop-color:#C2DA92"/>
	</linearGradient>
	<path fill="url(#svg3.body_1_)" d="M0.5,62.768c0,1.938,1.575,3.494,3.523,3.494h48.51   c1.947,0,3.521-1.559,3.521-3.494c0,0-1.844-6.861-6.525-11.543c-4.815-4.813-11.244-6.146-11.244-6.146   c-1.771,1.655-5.61,2.802-10.063,2.802c-4.453,0-8.292-1.146-10.063-2.802c0,0-5.755,0.586-11.189,6.021   C1.378,56.689,0.5,62.768,0.5,62.768z" id="svg3.body_9_" stroke="#008D33"/>
	
		<linearGradient gradientTransform="matrix(1 0 0 1 0.1602 -1546.3828)" x1="41.248" x2="15.2274" gradientUnits="userSpaceOnUse" y1="1593.0166" y2="1593.0166" id="svg3.turtleneck_1_">
		<stop offset="0" style="stop-color:#49AD33"/>
		<stop offset="1" style="stop-color:#C2DA92"/>
	</linearGradient>
	<path fill="url(#svg3.turtleneck_1_)" d="M39.715,44.786l-1.557-3.405c0,0-0.574,2.369-3.012,4.441   c-2.109,1.795-6.785,2.072-6.785,2.072s-4.753-0.356-6.722-2.031c-2.436-2.072-3.012-4.441-3.012-4.441l-1.555,3.404   c0,0-0.552,1.404,1.37,3.479c1.025,1.105,5.203,3.611,9.682,3.582c4.479-0.029,9.264-2.594,10.218-3.623   C40.266,46.191,39.715,44.786,39.715,44.786z" id="svg3.turtleneck_6_" stroke="#008D33"/>
	<path fill="#CC9869" d="M36.118,33.275   c-0.614,0.828-2.054,1.397-3.662,1.344c-1.399-0.047-2.694-0.286-3.429-0.787c-0.183-0.125-0.499-0.598-0.604-0.604   c-0.136-0.004-0.458,0.476-0.649,0.604c-1.382,0.932-4.73,1.074-6.257,0.139c-0.427-0.262-0.919-0.615-1.066-1.113   c-0.317-1.076,0.336,0.16,1.715-0.092c1.615-0.295,3.577-4.193,5.887-2.596c0.118,0.082,0.274,0.324,0.325,0.325   c0.099,0.002,0.64-0.503,0.788-0.556c2.393-0.859,3.818,2.568,5.377,2.828C35.346,32.899,36.844,32.295,36.118,33.275z" stroke-width="0.9271" stroke="#99724F" stroke-linecap="round" stroke-linejoin="round"/>
</g>
</svg>
      </g>
    </g>
    <g text-rendering="geometricPrecision" stroke-miterlimit="1.45" shape-rendering="geometricPrecision" font-family="sans-serif" transform="matrix(1,0,0,1,-400,70)" stroke-linecap="butt">
      <text x="477.1367" xml:space="preserve" y="-26.2792" clip-path="url(#clipPath2)" stroke="none">User</text>
      <path fill="none" d="M645 361.4861 L645 429.4815 L645 429.4815 L645 431.7106" clip-path="url(#clipPath2)"/>
      <path d="M645 353.4861 L640 365.4861 L645 362.4861 L650 365.4861 Z" clip-path="url(#clipPath2)" stroke="none"/>
      <path d="M645 439.7106 L650 427.7106 L645 430.7106 L640 427.7106 Z" clip-path="url(#clipPath2)" stroke="none"/>
      <path fill="none" d="M577.3125 612.3452 L612.2312 625.8835" clip-path="url(#clipPath2)"/>
      <path d="M619.6902 628.7754 L610.3091 619.7756 L611.2988 625.522 L606.6942 629.0994 Z" clip-path="url(#clipPath2)" stroke="none"/>
      <path fill="none" d="M604.4448 545 L627.0239 596.2538" clip-path="url(#clipPath2)"/>
      <path d="M630.2491 603.5749 L629.9869 590.5775 L626.6208 595.3387 L620.8356 594.6091 Z" clip-path="url(#clipPath2)" stroke="none"/>
      <path fill="none" d="M691.4475 545 L666.0547 597.2507" clip-path="url(#clipPath2)"/>
      <path d="M662.558 604.446 L672.3002 595.8385 L666.4918 596.3513 L663.306 591.4676 Z" clip-path="url(#clipPath2)" stroke="none"/>
      <path fill="none" d="M714.3125 612.3452 L679.3938 625.8835" clip-path="url(#clipPath2)"/>
      <path d="M671.9348 628.7754 L684.9308 629.0994 L680.3262 625.522 L681.3159 619.7756 Z" clip-path="url(#clipPath2)" stroke="none"/>
      <path fill="none" d="M800.8125 61.6887 L800.8125 134.4609" clip-path="url(#clipPath2)"/>
      <path d="M800.8125 142.4609 L805.8125 130.4609 L800.8125 133.4609 L795.8125 130.4609 Z" clip-path="url(#clipPath2)" stroke="none"/>
      <path fill="none" d="M490.8125 47.0495 L490.8125 134.4609" clip-path="url(#clipPath2)"/>
      <path d="M490.8125 142.4609 L495.8125 130.4609 L490.8125 133.4609 L485.8125 130.4609 Z" clip-path="url(#clipPath2)" stroke="none"/>
      <path fill="none" d="M490.8125 47.0786 L490.8125 84 L645.8125 84 L645.8125 134.4609" clip-path="url(#clipPath2)"/>
      <path d="M645.8125 142.4609 L650.8125 130.4609 L645.8125 133.4609 L640.8125 130.4609 Z" clip-path="url(#clipPath2)" stroke="none"/>
    </g>
  </g>
</svg>
